PathFileType	4	(X/Y/Z)	D:\TRACE\spot_10-12-23\spot_arm_body_motion_1_2-platform.trc
DataRate	CameraRate	NumFrames	NumMarkers	Units	OrigDataRate	OrigDataStartFrame	OrigNumFrames
100.00	100.00	      61	5	mm	100.00	1	      7000
Frame#	Time	Left_Front			Right_Front			Left_Aft			Right_Aft			Post			
		X1	Y1	Z1	X2	Y2	Z2	X3	Y3	Z3	X4	Y4	Z4	X5	Y5	Z5	

1	0.000	-826.90491	51.50900	-641.36127	740.67059	48.45683	-616.68719	-755.49341	-16.41979	495.39465	654.30505	-22.68469	595.21326	-25.22852	801.63995	-907.03448	
2	0.010	-826.90833	51.55333	-641.34747	740.68134	48.41690	-616.68866	-755.51379	-16.40911	495.37805	654.35510	-22.71609	595.22479	-25.27681	801.68091	-906.99194	
3	0.020	-826.89514	51.49320	-641.35754	740.71552	48.37666	-616.67120	-755.49756	-16.45323	495.35477	654.36462	-22.70658	595.22296	-25.29737	801.68750	-906.92065	
4	0.030	-826.91431	51.44711	-641.36908	740.72961	48.40217	-616.68903	-755.52307	-16.41384	495.37445	654.31635	-22.72101	595.21051	-25.27061	801.65393	-906.88715	
5	0.040	-826.90308	51.46219	-641.35895	740.66595	48.41846	-616.71136	-755.55872	-16.38799	495.43192	654.35492	-22.70974	595.19794	-25.26864	801.60657	-906.90137	
6	0.050	-826.90570	51.46449	-641.38898	740.69312	48.33727	-616.67627	-755.59271	-16.31388	495.41174	654.32404	-22.69813	595.19867	-25.24447	801.57898	-906.87439	
7	0.060	-826.92078	51.44597	-641.37054	740.68127	48.29770	-616.69202	-755.64032	-16.22324	495.44522	654.38940	-22.64242	595.21082	-25.21675	801.57141	-906.89661	
8	0.070	-826.91351	51.47646	-641.39124	740.68842	48.35992	-616.70264	-755.66559	-16.27322	495.52750	654.38977	-22.64440	595.18353	-25.19281	801.55481	-906.97314	
9	0.080	-826.93250	51.43417	-641.36676	740.66998	48.39737	-616.72186	-755.71094	-16.20729	495.52097	654.35529	-22.67068	595.18872	-25.29649	801.56036	-906.99866	
10	0.090	-826.92627	51.45303	-641.38464	740.67474	48.36271	-616.71094	-755.75580	-16.16650	495.50983	654.32996	-22.70360	595.22247	-25.29519	801.59937	-907.09174	
11	0.100	-826.92993	51.46737	-641.36578	740.70374	48.35061	-616.68164	-755.81458	-16.17303	495.67828	654.30945	-22.68948	595.21979	-25.31027	801.64569	-907.15234	
12	0.110	-826.92944	51.47499	-641.36145	740.70996	48.42130	-616.67401	-755.81665	-16.15558	495.70682	654.37579	-22.71701	595.21118	-25.32072	801.66742	-907.24011	
13	0.120	-826.90106	51.50647	-641.37000	740.70996	48.45934	-616.66791	-755.95465	-16.06318	495.74341	654.41748	-22.65756	595.20679	-25.29874	801.68396	-907.20032	
14	0.130	-826.94281	51.51202	-641.36664	740.67633	48.40794	-616.71838	-755.58984	-16.31042	495.30777	654.37653	-22.68518	595.19818	-25.32351	801.64880	-907.20984	
15	0.140	-826.93481	51.49171	-641.38867	740.69122	48.36315	-616.70105	-755.57367	-16.32900	495.34412	654.29651	-22.72638	595.16888	-25.31832	801.61267	-907.11920	
16	0.150	-826.93225	51.41302	-641.38330	740.70062	48.34816	-616.68915	-755.56342	-16.27564	495.33893	654.32947	-22.66862	595.21704	-25.25738	801.54694	-906.94757	
17	0.160	-826.90222	51.42671	-641.40802	740.68073	48.37786	-616.68463	-755.56531	-16.29900	495.36929	654.35327	-22.66362	595.18256	-25.27163	801.58466	-906.97876	
18	0.170	-826.92096	51.45193	-641.35333	740.71411	48.37804	-616.66791	-755.59186	-16.23752	495.32483	654.38605	-22.62382	595.22510	-25.23573	801.59143	-906.92719	
19	0.180	-826.92340	51.48369	-641.37048	740.68951	48.36450	-616.69958	-755.60126	-16.27047	495.32291	654.41724	-22.65154	595.20337	-25.26721	801.60992	-906.89819	
20	0.190	-826.91974	51.49327	-641.37939	740.68506	48.35566	-616.70929	-755.55518	-16.34360	495.32950	654.37598	-22.69794	595.19928	-25.23259	801.60870	-906.93512	
21	0.200	-826.93176	51.44291	-641.36749	740.68884	48.36972	-616.67450	-755.56409	-16.35410	495.38074	654.29260	-22.72828	595.19708	-25.31684	801.63055	-906.89240	
22	0.210	-826.91724	51.44657	-641.37225	740.69708	48.37774	-616.66101	-755.53296	-16.30644	495.42416	654.38800	-22.75350	595.22058	-25.27753	801.65692	-906.96710	
23	0.220	-826.91803	51.48454	-641.38519	740.70123	48.40443	-616.66711	-755.54987	-16.33193	495.39462	654.37592	-22.72049	595.15747	-25.30081	801.64557	-906.94238	
24	0.230	-826.95831	51.51539	-641.34052	740.69958	48.42871	-616.67670	-755.58929	-16.34489	495.34586	654.41571	-22.66095	595.17328	-25.24886	801.63269	-907.09485	
25	0.240	-826.94940	51.47227	-641.36469	740.68304	48.38433	-616.68604	-755.58679	-16.28783	495.34940	654.37817	-22.66130	595.19281	-25.29157	801.62085	-907.09961	
26	0.250	-826.92291	51.43539	-641.35425	740.68750	48.31493	-616.69434	-755.57379	-16.30112	495.36865	654.39185	-22.67370	595.17145	-25.23395	801.54291	-907.15326	
27	0.260	-826.90454	51.40354	-641.38843	740.69373	48.33403	-616.69940	-755.56720	-16.29505	495.34372	654.41394	-22.67482	595.15979	-25.25681	801.58020	-907.10156	
28	0.270	-826.90662	51.42892	-641.39618	740.70630	48.37289	-616.68933	-755.55511	-16.33350	495.36072	654.49463	-22.67235	595.09277	-25.23096	801.58740	-907.17328	
29	0.280	-826.89935	51.46592	-641.38818	740.70135	48.40734	-616.69684	-755.56250	-16.23598	495.34384	654.55804	-22.60813	595.10278	-25.31855	801.60278	-907.06531	
30	0.290	-826.93854	51.49722	-641.35089	740.69019	48.38333	-616.70911	-755.59143	-16.30970	495.32690	654.62506	-22.53882	595.11810	-25.30168	801.61823	-907.06812	
31	0.300	-826.95654	51.47258	-641.35864	740.69141	48.38875	-616.70392	-755.58527	-16.32259	495.31897	654.66852	-22.57242	595.09027	-25.31643	801.63074	-907.12579	
32	0.310	-826.94916	51.44455	-641.36932	740.68750	48.36520	-616.69916	-755.56805	-16.32701	495.34952	654.71075	-22.61885	595.04755	-25.25820	801.61511	-907.04810	
33	0.320	-826.92499	51.46275	-641.37061	740.69550	48.38080	-616.68652	-755.58325	-16.33622	495.33432	654.21320	-22.69731	595.27386	-25.27217	801.63104	-907.00195	
34	0.330	-826.94678	51.48708	-641.36853	740.70410	48.40045	-616.67242	-755.55475	-16.29620	495.31549	654.27563	-22.62733	595.30554	-25.28529	801.63110	-906.96869	
35	0.340	-826.93073	51.46463	-641.37378	740.71008	48.39293	-616.67841	-755.58679	-16.28915	495.35474	654.31824	-22.57722	595.30212	-25.26041	801.60919	-906.94287	
36	0.350	-826.93176	51.46214	-641.35834	740.67041	48.36317	-616.70660	-755.56995	-16.23685	495.37366	654.25897	-22.58300	595.30463	-25.25793	801.52789	-906.86053	
37	0.360	-826.94794	51.43140	-641.39893	740.70538	48.32701	-616.70978	-755.60419	-16.29849	495.34027	654.19202	-22.66878	595.30389	-25.26080	801.55194	-906.91351	
38	0.370	-826.91693	51.42207	-641.39020	740.70807	48.31479	-616.67926	-755.58759	-16.31055	495.32983	654.21204	-22.66561	595.29034	-25.22047	801.56915	-906.98389	
39	0.380	-826.93549	51.45952	-641.37274	740.70844	48.37970	-616.69958	-755.58032	-16.31087	495.33578	654.27075	-22.65983	595.27380	-25.26406	801.60181	-907.04462	
40	0.390	-826.90167	51.45954	-641.38098	740.73944	48.39051	-616.67981	-755.59937	-16.31476	495.35883	654.28473	-22.60972	595.29358	-25.29264	801.63452	-907.12494	
41	0.400	-826.92590	51.45808	-641.36676	740.73285	48.39276	-616.66376	-755.56445	-16.32724	495.40488	654.31421	-22.65020	595.34277	-25.29213	801.66785	-907.15503	
42	0.410	-826.94910	51.43650	-641.35962	740.70221	48.38725	-616.64630	-755.55463	-16.31710	495.37717	654.21741	-22.68500	595.32782	-25.31687	801.62640	-907.15948	
43	0.420	-826.92816	51.43046	-641.38202	740.70721	48.34047	-616.67548	-755.56299	-16.35663	495.36957	654.25146	-22.68269	595.31036	-25.30668	801.58258	-907.12079	
44	0.430	-826.90167	51.45434	-641.38818	740.70142	48.36965	-616.69861	-755.56903	-16.34180	495.36172	654.28864	-22.60899	595.31390	-25.27218	801.61023	-907.17065	
45	0.440	-826.90668	51.45873	-641.37592	740.71045	48.37811	-616.69519	-755.59637	-16.27773	495.28387	654.30780	-22.55725	595.32947	-25.25281	801.60651	-907.12872	
46	0.450	-826.92383	51.45527	-641.36841	740.70197	48.37338	-616.69824	-755.59662	-16.27385	495.32275	654.27875	-22.59830	595.31793	-25.22707	801.60425	-907.10126	
47	0.460	-826.94702	51.44748	-641.37506	740.70258	48.37880	-616.68970	-755.58893	-16.26404	495.30066	654.24365	-22.66697	595.30933	-25.24741	801.56396	-907.05261	
48	0.470	-826.94989	51.43723	-641.35272	740.67786	48.33322	-616.70599	-755.58813	-16.30812	495.35095	654.23425	-22.68865	595.29254	-25.23571	801.56604	-907.03168	
49	0.480	-826.93262	51.44764	-641.36212	740.68005	48.36668	-616.71246	-755.56567	-16.34346	495.32129	654.22955	-22.64794	595.29950	-25.27880	801.54022	-906.91595	
50	0.490	-826.89569	51.46813	-641.40601	740.70428	48.40048	-616.68658	-755.58850	-16.30150	495.32513	654.28851	-22.60148	595.31848	-25.28399	801.57336	-906.91486	
51	0.500	-826.91046	51.49052	-641.38013	740.69910	48.41439	-616.68848	-755.61627	-16.28997	495.31882	654.28510	-22.66656	595.27460	-25.21393	801.62164	-906.98956	
52	0.510	-826.92377	51.50169	-641.36853	740.70825	48.40216	-616.68829	-755.56720	-16.34551	495.35483	654.28448	-22.67471	595.29926	-25.24956	801.60797	-906.99469	
53	0.520	-826.92761	51.46292	-641.35773	740.66174	48.35441	-616.68903	-755.55804	-16.38534	495.42679	654.22723	-22.68196	595.28931	-25.23881	801.59839	-906.99969	
54	0.530	-826.93536	51.44711	-641.35486	740.69348	48.36054	-616.69037	-755.57019	-16.36493	495.39301	654.23053	-22.65567	595.31512	-25.28926	801.58246	-907.04504	
55	0.540	-826.93542	51.46660	-641.39532	740.69635	48.37514	-616.68781	-755.54968	-16.32039	495.39032	654.29248	-22.60793	595.31519	-25.25116	801.58014	-907.05872	
56	0.550	-826.90784	51.47410	-641.37848	740.69232	48.34212	-616.71014	-755.53503	-16.33899	495.38687	654.33087	-22.59005	595.30658	-25.32643	801.50409	-906.98450	
57	0.560	-826.93384	51.47593	-641.36383	740.69611	48.37637	-616.69708	-755.55658	-16.35366	495.44046	654.33618	-22.61647	595.29956	-25.22849	801.58038	-907.12079	
58	0.570	-826.93475	51.46624	-641.36322	740.69836	48.37924	-616.69189	-755.56885	-16.32570	495.38513	654.26514	-22.63365	595.31763	-25.27152	801.58722	-907.14935	
59	0.580	-826.94635	51.45800	-641.38757	740.67908	48.36137	-616.69000	-755.58093	-16.33982	495.36374	654.27185	-22.66263	595.32904	-25.30020	801.62323	-907.17218	
60	0.590	-826.92651	51.46751	-641.37598	740.68622	48.40907	-616.70416	-755.55408	-16.36037	495.36526	654.26019	-22.63982	595.29083	-25.28330	801.64392	-907.14496	
61	0.600	-826.91101	51.51019	-641.37347	740.70441	48.43892	-616.68323	-755.56036	-16.34266	495.35217	654.29230	-22.60165	595.30029	-25.25907	801.63904	-907.15198	
